<?xml version="1.0" standalone="no"?>
<!DOCTYPE svg PUBLIC "-//W3C//DTD SVG 20010904//EN"
 "http://www.w3.org/TR/2001/REC-SVG-20010904/DTD/svg10.dtd">
<svg version="1.0" xmlns="http://www.w3.org/2000/svg"
 width="150.000000pt" height="80.000000pt" viewBox="0 0 150.000000 80.000000"
 preserveAspectRatio="xMidYMid meet">
<g transform="translate(0.000000,80.000000) scale(0.100000,-0.100000)"
fill="#070147" stroke="none">
<path d="M1155 791 c-6 -5 -80 -26 -165 -46 -322 -75 -523 -124 -527 -129 -9
-9 8 -26 25 -26 9 0 71 13 137 29 66 16 135 32 153 36 l33 7 -34 -69 c-19 -37
-55 -116 -81 -174 -39 -89 -45 -110 -37 -132 15 -38 26 -34 40 16 7 23 48 115
92 204 62 129 83 164 101 168 13 2 76 16 142 31 65 14 125 28 132 31 17 6 18
-9 2 -25 -14 -14 -4 -27 14 -18 61 32 141 83 142 91 1 13 -156 19 -169 6z"/>
<path d="M425 710 c-10 -11 -24 -20 -31 -20 -7 0 -50 -54 -94 -120 -81 -119
-108 -150 -96 -114 15 50 26 117 20 123 -3 3 -22 -14 -42 -39 -20 -25 -69 -77
-109 -117 -40 -39 -73 -74 -73 -77 0 -3 11 -6 24 -6 24 0 40 15 105 100 l19
25 -5 -62 c-5 -53 -3 -63 10 -63 18 0 105 94 155 168 19 29 37 50 40 48 2 -3
-12 -53 -31 -113 -19 -59 -43 -145 -52 -190 -17 -79 -19 -82 -41 -77 -13 4
-24 2 -24 -2 0 -18 45 -174 51 -174 3 0 11 11 17 25 7 14 33 48 58 75 26 28
44 51 40 51 -3 1 -10 3 -16 4 -5 1 -14 3 -20 4 -14 2 -12 45 5 142 28 151 63
283 94 351 17 37 31 70 31 73 0 11 -18 4 -35 -15z"/>
<path d="M1278 612 c-12 -16 -45 -81 -72 -145 -27 -64 -54 -114 -58 -110 -5 3
-15 -3 -23 -13 -10 -15 -26 -19 -69 -19 -69 0 -82 11 -67 58 11 32 27 47 52
47 4 0 6 -6 3 -14 -9 -23 17 -31 32 -11 12 16 11 21 -3 37 -9 10 -24 18 -34
18 -24 0 -76 -45 -83 -72 -7 -29 -34 -46 -85 -54 -33 -5 -42 -3 -47 11 -8 21
6 31 56 39 21 3 47 14 60 24 l22 17 -26 28 c-30 32 -64 35 -100 6 -72 -57 -71
-169 3 -169 41 0 101 27 101 46 0 10 12 3 34 -20 39 -42 80 -47 131 -16 l33
20 -5 -40 c-3 -22 -3 -40 0 -40 3 0 22 35 42 79 33 70 41 79 69 84 17 4 42 9
54 13 l24 7 -20 -39 c-21 -42 -62 -165 -62 -186 0 -7 -7 -26 -15 -42 -18 -34
-10 -53 13 -33 10 8 43 29 75 46 40 22 57 27 57 17 0 -30 30 -24 60 12 16 20
30 40 30 44 0 3 9 10 20 13 20 7 27 29 11 39 -5 3 -34 1 -65 -6 -47 -9 -57
-15 -62 -35 -6 -22 -79 -71 -91 -60 -2 3 3 19 12 36 9 18 13 36 10 41 -3 5 10
46 29 91 20 45 33 86 29 92 -3 5 -27 7 -59 3 l-53 -6 40 85 c21 47 39 90 39
95 0 18 -18 10 -42 -18z"/>
</g>
</svg>
